M48
; DRILL file {KiCad 7.0.11} date Wed May  1 23:49:31 2024
; FORMAT={-:-/ absolute / inch / decimal}
; #@! TF.CreationDate,2024-05-01T23:49:31+02:00
; #@! TF.GenerationSoftware,Kicad,Pcbnew,7.0.11
; #@! TF.FileFunction,Plated,1,2,PTH
FMAT,2
INCH
; #@! TA.AperFunction,Plated,PTH,ViaDrill
T1C0.0157
; #@! TA.AperFunction,Plated,PTH,ViaDrill
T2C0.0256
; #@! TA.AperFunction,Plated,PTH,ComponentDrill
T3C0.0276
; #@! TA.AperFunction,Plated,PTH,ComponentDrill
T4C0.0394
; #@! TA.AperFunction,Plated,PTH,ComponentDrill
T5C0.0433
; #@! TA.AperFunction,Plated,PTH,ComponentDrill
T6C0.0512
; #@! TA.AperFunction,Plated,PTH,ComponentDrill
T7C0.0787
%
G90
G05
T1
X3.1575Y-4.6614
X3.2008Y-3.2992
X3.4528Y-3.4528
X3.4528Y-3.5197
X3.4528Y-3.5866
X3.4528Y-3.6535
X3.5551Y-1.7087
X3.5551Y-2.378
X3.8858Y-1.7087
X3.9213Y-2.3858
X4.0236Y-1.5354
X4.0236Y-1.6811
X4.2559Y-3.378
X4.2913Y-3.4449
X4.3307Y-3.5079
X4.3583Y-1.9488
X4.3622Y-2.1024
X4.3701Y-3.5591
X4.4055Y-1.9488
X4.4055Y-2.1063
X4.6535Y-3.811
X4.6535Y-4.7087
X4.6929Y-3.811
X4.6929Y-4.7087
X4.7795Y-2.6339
X4.7908Y-2.8391
X5.0433Y-4.0079
X5.0433Y-4.0591
X5.0433Y-4.1063
X5.0502Y-2.4213
X5.0546Y-2.3027
X5.0778Y-4.6929
X5.0861Y-2.2357
X5.1063Y-4.8346
X5.1093Y-2.376
X5.1102Y-4.7677
X5.2047Y-2.8228
X5.2283Y-3.0669
X5.4094Y-4.3189
X5.4168Y-4.3981
X5.4417Y-3.0662
X5.5157Y-2.8268
X5.5374Y-4.0433
X5.5374Y-4.127
T2
X3.378Y-0.9685
X3.3819Y-2.0354
X3.3858Y-2.6654
X3.3937Y-1.378
X3.3976Y-1.6102
X3.4055Y-2.2717
X3.4685Y-1.2402
X3.4843Y-2.5354
X3.4843Y-3.0236
X3.4882Y-1.874
X3.5354Y-3.374
X3.563Y-4.0
X3.5748Y-3.748
X3.9409Y-1.6142
X4.1929Y-4.063
X4.7047Y-2.3386
X4.7047Y-2.8031
X4.752Y-4.5079
X4.7717Y-1.752
X4.7756Y-3.6535
X4.7756Y-3.8346
X4.7756Y-4.3307
X4.8346Y-2.5551
X4.8543Y-2.0197
X4.8819Y-2.1575
X5.0197Y-1.5551
X5.0522Y-2.7205
X5.2598Y-3.5354
X5.3386Y-2.9882
X5.3858Y-3.4173
X5.4291Y-1.9213
X5.4528Y-3.9764
X5.4803Y-5.4016
X5.5354Y-1.6575
X5.5591Y-2.6142
X5.5709Y-3.2795
X5.5748Y-2.3071
X5.5748Y-4.1811
X5.5754Y-5.128
X5.5787Y-2.7362
X5.5787Y-3.6417
X5.5827Y-4.5906
X5.5866Y-1.7638
X5.752Y-4.2913
X5.7677Y-2.4055
X5.811Y-3.5354
X5.811Y-4.4803
X5.9283Y-2.5688
X5.9333Y-5.3038
X5.9583Y-4.4188
X5.9683Y-1.5638
X5.9683Y-4.3388
X5.9733Y-2.6288
X5.9733Y-3.4638
X5.9833Y-5.2338
X6.0033Y-3.531
X6.0033Y-4.2788
X6.0033Y-4.4778
X6.0133Y-3.3538
X6.0133Y-3.4128
X6.0183Y-1.6238
X6.0383Y-2.4988
X6.0833Y-2.4388
X6.1575Y-3.1929
X6.1575Y-4.0945
X6.1575Y-5.0315
X6.1654Y-2.2205
X6.248Y-1.4961
X6.3071Y-1.4134
X6.5277Y-2.5258
X6.5283Y-2.9438
X6.5283Y-3.8638
X6.5333Y-4.3388
X6.5333Y-4.4188
X6.5333Y-4.8388
X6.5366Y-3.0022
X6.5383Y-1.5638
X6.5383Y-1.9938
X6.5383Y-3.4088
X6.5398Y-3.9217
X6.5433Y-2.4688
X6.5433Y-4.9138
X6.5433Y-5.3438
X6.5436Y-2.0526
X6.585Y-3.4455
X6.9449Y-1.4252
X7.1378Y-1.4016
T3
X5.6681Y-2.9563
X5.6681Y-3.0063
X5.6681Y-3.0563
X5.6681Y-3.8618
X5.6681Y-3.9118
X5.6681Y-3.9618
X5.6684Y-4.8083
X5.6684Y-4.8583
X5.6684Y-4.9083
X5.6756Y-1.9843
X5.6756Y-2.0343
X5.6756Y-2.0843
X5.7681Y-2.9063
X5.7681Y-2.9563
X5.7681Y-3.0063
X5.7681Y-3.0563
X5.7681Y-3.1063
X5.7681Y-3.8118
X5.7681Y-3.8618
X5.7681Y-3.9118
X5.7681Y-3.9618
X5.7681Y-4.0118
X5.7684Y-4.7583
X5.7684Y-4.8083
X5.7684Y-4.8583
X5.7684Y-4.9083
X5.7684Y-4.9583
X5.7756Y-1.9343
X5.7756Y-1.9843
X5.7756Y-2.0343
X5.7756Y-2.0843
X5.7756Y-2.1343
X5.8681Y-2.9063
X5.8681Y-2.9563
X5.8681Y-3.0063
X5.8681Y-3.0563
X5.8681Y-3.1063
X5.8681Y-3.8118
X5.8681Y-3.8618
X5.8681Y-3.9118
X5.8681Y-3.9618
X5.8681Y-4.0118
X5.8684Y-4.7583
X5.8684Y-4.8083
X5.8684Y-4.8583
X5.8684Y-4.9083
X5.8684Y-4.9583
X5.8756Y-1.9343
X5.8756Y-1.9843
X5.8756Y-2.0343
X5.8756Y-2.0843
X5.8756Y-2.1343
X5.9681Y-2.9063
X5.9681Y-2.9563
X5.9681Y-3.0063
X5.9681Y-3.0563
X5.9681Y-3.1063
X5.9681Y-3.8118
X5.9681Y-3.8618
X5.9681Y-3.9118
X5.9681Y-3.9618
X5.9681Y-4.0118
X5.9684Y-4.7583
X5.9684Y-4.8083
X5.9684Y-4.8583
X5.9684Y-4.9083
X5.9684Y-4.9583
X5.9756Y-1.9343
X5.9756Y-1.9843
X5.9756Y-2.0343
X5.9756Y-2.0843
X5.9756Y-2.1343
X6.0681Y-2.9563
X6.0681Y-3.0063
X6.0681Y-3.0563
X6.0681Y-3.8618
X6.0681Y-3.9118
X6.0681Y-3.9618
X6.0684Y-4.8083
X6.0684Y-4.8583
X6.0684Y-4.9083
X6.0756Y-1.9843
X6.0756Y-2.0343
X6.0756Y-2.0843
T4
X3.7142Y-1.8419
X3.7142Y-1.9419
X3.7142Y-2.0419
X3.7142Y-2.1419
X3.7142Y-2.2419
X3.7142Y-2.3419
X3.7142Y-2.4419
X3.7142Y-2.5419
X3.7142Y-2.6419
X3.7142Y-2.7419
X3.7142Y-2.8419
X3.7142Y-2.9419
X3.7142Y-3.0419
X3.7142Y-3.1419
X4.5142Y-1.8419
X4.5142Y-1.9419
X4.5142Y-2.0419
X4.5142Y-2.1419
X4.5142Y-2.2419
X4.5142Y-2.3419
X4.5142Y-2.4419
X4.5142Y-2.5419
X4.5142Y-2.6419
X4.5142Y-2.7419
X4.5142Y-2.8419
X4.5142Y-2.9419
X4.5142Y-3.0419
X4.5142Y-3.1419
T5
X4.7185Y-0.9783
X4.7185Y-1.2343
X4.8957Y-0.9783
X4.8957Y-1.2343
T6
X2.8522Y-4.7146
X2.8522Y-4.9114
X2.8543Y-3.6687
X2.8543Y-3.8655
X2.8543Y-4.0624
X2.8543Y-4.2592
X2.8543Y-4.4561
X2.8546Y-1.0998
X2.8546Y-1.2966
X2.8546Y-1.4935
X2.8546Y-1.7396
X2.8546Y-1.9364
X2.8546Y-2.1333
X2.8546Y-3.0191
X2.8546Y-3.2159
X2.8546Y-3.4128
X2.8568Y-2.3793
X2.8568Y-2.5762
X2.8568Y-2.773
X3.3307Y-4.2784
X3.3996Y-5.2136
X3.5965Y-5.2136
X3.63Y-4.2784
X3.8641Y-4.269
X3.933Y-5.2139
X4.1299Y-5.2139
X4.1634Y-4.269
X4.378Y-5.2126
X4.5748Y-5.2126
X4.7717Y-5.2126
X4.9685Y-5.2126
X5.1142Y-1.1378
X5.311Y-1.1378
X5.5079Y-1.1378
X5.7047Y-1.1378
X5.9016Y-1.1378
X6.0984Y-1.1378
X6.3413Y-1.1246
X6.5381Y-1.1246
X7.1356Y-1.685
X7.1356Y-1.8818
X7.1356Y-2.155
X7.1356Y-2.3518
X7.14Y-2.6535
X7.14Y-2.8504
X7.14Y-3.0945
X7.14Y-3.2913
X7.1477Y-3.5787
X7.1477Y-3.7756
X7.1477Y-4.0315
X7.1477Y-4.2283
X7.1495Y-4.5262
X7.1495Y-4.723
X7.1537Y-5.0282
X7.1537Y-5.225
T7
X3.3307Y-4.7784
X3.63Y-4.8784
X3.8641Y-4.769
X4.1634Y-4.869
M30
