%TF.GenerationSoftware,KiCad,Pcbnew,7.0.11*%
%TF.CreationDate,2024-05-01T23:49:06+02:00*%
%TF.ProjectId,KiCad,4b694361-642e-46b6-9963-61645f706362,rev?*%
%TF.SameCoordinates,Original*%
%TF.FileFunction,Soldermask,Bot*%
%TF.FilePolarity,Negative*%
%FSLAX46Y46*%
G04 Gerber Fmt 4.6, Leading zero omitted, Abs format (unit mm)*
G04 Created by KiCad (PCBNEW 7.0.11) date 2024-05-01 23:49:06*
%MOMM*%
%LPD*%
G01*
G04 APERTURE LIST*
%ADD10R,2.600000X2.600000*%
%ADD11C,2.600000*%
%ADD12C,2.200000*%
%ADD13C,1.712000*%
%ADD14R,1.950000X1.950000*%
%ADD15C,1.950000*%
%ADD16C,3.000000*%
%ADD17C,2.000000*%
G04 APERTURE END LIST*
D10*
%TO.C,J18*%
X181245000Y-47798000D03*
D11*
X181245000Y-42798000D03*
%TD*%
D10*
%TO.C,J11*%
X181355000Y-83600000D03*
D11*
X181355000Y-78600000D03*
%TD*%
D12*
%TO.C,U2*%
X94250000Y-26900000D03*
X94250000Y-83900000D03*
X114750000Y-26900000D03*
X114750000Y-83900000D03*
D13*
X94340000Y-46784800D03*
X94340000Y-49324800D03*
X94340000Y-51864800D03*
X94340000Y-54404800D03*
X94340000Y-56944800D03*
X94340000Y-59484800D03*
X94340000Y-62024800D03*
X94340000Y-64564800D03*
X94340000Y-67104800D03*
X94340000Y-69644800D03*
X94340000Y-72184800D03*
X94340000Y-74724800D03*
X94340000Y-77264800D03*
X94340000Y-79804800D03*
X114660000Y-79804800D03*
X114660000Y-77264800D03*
X114660000Y-74724800D03*
X114660000Y-72184800D03*
X114660000Y-69644800D03*
X114660000Y-67104800D03*
X114660000Y-64564800D03*
X114660000Y-62024800D03*
X114660000Y-59484800D03*
X114660000Y-56944800D03*
X114660000Y-54404800D03*
X114660000Y-51864800D03*
X114660000Y-49324800D03*
X114660000Y-46784800D03*
%TD*%
D10*
%TO.C,J2*%
X72507500Y-44184800D03*
D11*
X72507500Y-49184800D03*
X72507500Y-54184800D03*
%TD*%
D10*
%TO.C,J10*%
X72500000Y-93184800D03*
D11*
X72500000Y-98184800D03*
X72500000Y-103184800D03*
X72500000Y-108184800D03*
X72500000Y-113184800D03*
%TD*%
D10*
%TO.C,J14*%
X181355000Y-72400000D03*
D11*
X181355000Y-67400000D03*
%TD*%
D10*
%TO.C,J6*%
X181705000Y-132715200D03*
D11*
X181705000Y-127715200D03*
%TD*%
D10*
%TO.C,J19*%
X166069000Y-28566000D03*
D11*
X161069000Y-28566000D03*
%TD*%
D10*
%TO.C,J17*%
X181245000Y-59736000D03*
D11*
X181245000Y-54736000D03*
%TD*%
D10*
%TO.C,J13*%
X111200000Y-132400000D03*
D11*
X116200000Y-132400000D03*
X121200000Y-132400000D03*
X126200000Y-132400000D03*
%TD*%
D14*
%TO.C,K2*%
X98149125Y-108433750D03*
D15*
X105749125Y-108433750D03*
D16*
X98149125Y-121133750D03*
X105749125Y-123673750D03*
%TD*%
D10*
%TO.C,J7*%
X181597500Y-119965200D03*
D11*
X181597500Y-114965200D03*
%TD*%
D10*
%TO.C,J15*%
X86350875Y-132426250D03*
D11*
X91350875Y-132426250D03*
%TD*%
D10*
%TO.C,J12*%
X72445000Y-119750000D03*
D11*
X72445000Y-124750000D03*
%TD*%
D10*
%TO.C,J9*%
X181552500Y-95900000D03*
D11*
X181552500Y-90900000D03*
%TD*%
D10*
%TO.C,J16*%
X99899125Y-132433750D03*
D11*
X104899125Y-132433750D03*
%TD*%
D14*
%TO.C,K1*%
X84600875Y-108671250D03*
D15*
X92200875Y-108671250D03*
D16*
X84600875Y-121371250D03*
X92200875Y-123911250D03*
%TD*%
D10*
%TO.C,J1*%
X72507500Y-27934800D03*
D11*
X72507500Y-32934800D03*
X72507500Y-37934800D03*
%TD*%
D10*
%TO.C,J21*%
X154900000Y-28900000D03*
D11*
X149900000Y-28900000D03*
X144900000Y-28900000D03*
X139900000Y-28900000D03*
X134900000Y-28900000D03*
X129900000Y-28900000D03*
%TD*%
D17*
%TO.C,SW1*%
X124350000Y-24850000D03*
X124350000Y-31350000D03*
X119850000Y-24850000D03*
X119850000Y-31350000D03*
%TD*%
D10*
%TO.C,J8*%
X181552500Y-107400000D03*
D11*
X181552500Y-102400000D03*
%TD*%
D10*
%TO.C,J3*%
X72562500Y-60434800D03*
D11*
X72562500Y-65434800D03*
X72562500Y-70434800D03*
%TD*%
D10*
%TO.C,J5*%
X72507500Y-76684800D03*
D11*
X72507500Y-81684800D03*
X72507500Y-86684800D03*
%TD*%
M02*
